<svg height="512" viewBox="0 0 74 74" width="512" xmlns="http://www.w3.org/2000/svg"><g id="color_line" data-name="color line"><path d="m15.168 11.449h.81a2.7 2.7 0 0 1 2.7 2.7v2.483a0 0 0 0 1 0 0h-6.209a0 0 0 0 1 0 0v-2.484a2.7 2.7 0 0 1 2.699-2.699z" fill="#9297ab"/><path d="m18.677 17.131h-6.208a.5.5 0 0 1 -.5-.5v-2.484a3.2 3.2 0 0 1 3.2-3.2h.81a3.2 3.2 0 0 1 3.2 3.2v2.483a.5.5 0 0 1 -.502.501zm-5.708-1h5.208v-1.984a2.2 2.2 0 0 0 -2.2-2.2h-.81a2.2 2.2 0 0 0 -2.2 2.2z" fill="#323c6b"/><path d="m71.695 19.9v35.072a4.228 4.228 0 0 1 -4.228 4.228h-59.533a4.234 4.234 0 0 1 -4.24-4.228v-35.072a4.234 4.234 0 0 1 4.24-4.228h25.348l2.88-7.972a2.4 2.4 0 0 1 2.238-1.529h15.187a2.4 2.4 0 0 1 2.24 1.529l2.881 7.97h8.759a4.228 4.228 0 0 1 4.228 4.23z" fill="#eeefee"/><path d="m68.86 28.8h2.83v-8.9a4.225 4.225 0 0 0 -3-4.05 4.279 4.279 0 0 1 .17 1.19z" fill="#e1e6e9"/><path d="m68.86 45.678v6.432a4.231 4.231 0 0 1 -4.23 4.23h-59.53a4.226 4.226 0 0 1 -1.24-.18 4.248 4.248 0 0 0 4.07 3.04h59.54a4.223 4.223 0 0 0 4.22-4.23v-9.292z" fill="#e1e6e9"/><path d="m28.234 35.887a25.617 25.617 0 0 0 2.715 11.613h-27.254v-20.509h26.076a26.057 26.057 0 0 0 -1.537 8.896z" fill="#bbbbcd"/><path d="m71.695 26.991v20.509h-10.655a25.617 25.617 0 0 0 2.714-11.614 26.057 26.057 0 0 0 -1.537-8.9z" fill="#bbbbcd"/><g fill="#323c6b"><path d="m51.119 11.667h-10.25a.5.5 0 0 1 0-1h10.25a.5.5 0 0 1 0 1z"/><path d="m67.467 62.7a.5.5 0 0 1 0-1 6.7 6.7 0 0 0 6.7-6.09.5.5 0 0 1 1 .094 7.693 7.693 0 0 1 -7.7 6.996z"/><path d="m64.979 62.7h-.879a.5.5 0 0 1 0-1h.875a.5.5 0 0 1 0 1z"/><path d="m.7 40.7a.5.5 0 0 1 -.5-.5v-8.6a.5.5 0 0 1 1 0v8.6a.5.5 0 0 1 -.5.5z"/><path d="m.7 29.225a.5.5 0 0 1 -.5-.5v-.945a.5.5 0 0 1 1 0v.945a.5.5 0 0 1 -.5.5z"/></g><path d="m68.86 27.094h2.83v20.079h-2.83z" fill="#9297ab"/><g fill="#323c6b"><path d="m67.467 59.7h-59.532a4.739 4.739 0 0 1 -4.735-4.728v-35.072a4.739 4.739 0 0 1 4.739-4.729h25l2.761-7.64a2.89 2.89 0 0 1 2.7-1.86h15.187a2.885 2.885 0 0 1 2.705 1.85l2.766 7.651h8.409a4.734 4.734 0 0 1 4.733 4.728v35.072a4.734 4.734 0 0 1 -4.733 4.728zm-59.532-43.528a3.738 3.738 0 0 0 -3.735 3.728v35.072a3.738 3.738 0 0 0 3.735 3.728h59.532a3.733 3.733 0 0 0 3.733-3.728v-35.072a3.733 3.733 0 0 0 -3.729-3.729h-8.76a.5.5 0 0 1 -.471-.33l-2.881-7.97a1.886 1.886 0 0 0 -1.769-1.2h-15.19a1.916 1.916 0 0 0 -1.773 1.212l-2.876 7.959a.5.5 0 0 1 -.471.33z"/><path d="m30.948 47.9h-27.248a.5.5 0 0 1 -.5-.5v-20.3a.5.5 0 0 1 .5-.5h26.071a.5.5 0 0 1 .47.672 24.962 24.962 0 0 0 -1.507 8.628 24.692 24.692 0 0 0 2.658 11.268.5.5 0 0 1 -.444.729zm-26.748-1h25.945a26.409 26.409 0 0 1 -1.078-19.3h-24.867z"/><path d="m71.7 47.9h-10.66a.5.5 0 0 1 -.444-.729 24.692 24.692 0 0 0 2.658-11.271 24.968 24.968 0 0 0 -1.506-8.634.5.5 0 0 1 .47-.672h9.482a.5.5 0 0 1 .5.5v20.306a.5.5 0 0 1 -.5.5zm-9.852-1h9.352v-19.3h-8.277a26.417 26.417 0 0 1 -1.079 19.3z"/></g><path d="m64.463 36.391a18.451 18.451 0 1 1 -1.6-7.523 18.44 18.44 0 0 1 1.6 7.523z" fill="#84879c"/><path d="m46 55.366a18.965 18.965 0 1 1 16.064-8.889 18.908 18.908 0 0 1 -16.064 8.889zm0-36.937a17.949 17.949 0 1 0 16.409 10.643 18 18 0 0 0 -16.409-10.644z" fill="#323c6b"/><circle cx="45.995" cy="36.395" fill="#89c5cd" r="13.788"/><path d="m16.849 44.466h-8.563a.741.741 0 1 1 0-1.481h8.563a.741.741 0 1 1 0 1.481z" fill="#fff"/><path d="m20.957 44.466h-.991a.741.741 0 0 1 0-1.481h.991a.741.741 0 0 1 0 1.481z" fill="#fff"/><g fill="#eeefee" opacity=".4"><path d="m53.39 24.771-13.7 23.88a13.6 13.6 0 0 1 -3.88-2.97l13.07-22.77a13.49 13.49 0 0 1 4.51 1.86z"/><path d="m47.36 22.681-12.52 21.81a13.162 13.162 0 0 1 -.91-1.42l11.74-20.45c.11-.01.22-.01.33-.01a12.265 12.265 0 0 1 1.36.07z"/><path d="m56.37 27.331-12.98 22.6a12.646 12.646 0 0 1 -2.39-.69l13.57-23.63a12.21 12.21 0 0 1 1.8 1.72z"/></g><path d="m46 50.684a14.289 14.289 0 1 1 14.283-14.284 14.3 14.3 0 0 1 -14.283 14.284zm0-27.577a13.289 13.289 0 1 0 13.283 13.293 13.3 13.3 0 0 0 -13.283-13.294z" fill="#323c6b"/></g></svg>